<svg xmlns="http://www.w3.org/2000/svg" viewBox="0 0 192.038 26.146">
  <defs>
    <style>
      .cls-1 {
        fill: #3d3d3d;
      }
    </style>
  </defs>
  <path id="Path_198" data-name="Path 198" class="cls-1" d="M27.982-14.314H13.022V-9.18h7.514C19.754-6.6,17.51-5.134,14.518-5.134c-4.25,0-6.9-3.366-6.9-7.548,0-4.046,2.822-7.31,6.868-7.31a6.177,6.177,0,0,1,5.542,3.264h7.208c-1.428-5.066-6.9-8.908-12.58-8.908C7.344-25.636,1.19-20.3,1.19-12.682A13.178,13.178,0,0,0,14.552.51a13.139,13.139,0,0,0,13.43-13.4ZM46.06-6.944c0-.2.028-.392.028-.588a8.191,8.191,0,0,0-8.036-8.176A8.08,8.08,0,0,0,30.1-7.644,8,8,0,0,0,38.08.364a8.033,8.033,0,0,0,7.532-5.376H43.54A5.8,5.8,0,0,1,38.052-1.4a6.086,6.086,0,0,1-5.936-5.544ZM32.116-8.708a6.07,6.07,0,0,1,5.936-5.236,6.122,6.122,0,0,1,6.02,5.236ZM56.9-11.536a4.1,4.1,0,0,0-4.172-4.172,4.179,4.179,0,0,0-4.368,4.256c0,2.632,1.708,3.388,4.4,4.368,1.764.644,2.716,1.456,2.716,2.94A2.564,2.564,0,0,1,52.612-1.4c-1.652,0-2.716-1.092-2.744-3.136h-1.96v.112a4.566,4.566,0,0,0,4.7,4.788c2.94,0,4.816-1.792,4.816-4.592,0-2.184-.728-3.668-4.452-4.9-1.876-.616-2.66-1.4-2.66-2.52a2.277,2.277,0,0,1,2.324-2.3,2.331,2.331,0,0,1,2.3,2.408ZM63.672,0V-13.552H67.34v-1.764H63.672v-5.4h-1.96v5.4h-3.22v1.764h3.22V0Zm7.7-17.192V-20.72h-1.96v3.528ZM71.372,0V-15.316h-1.96V0ZM82.348.364a8.109,8.109,0,0,0,8.036-8.036,8.127,8.127,0,0,0-8.036-8.036,8.1,8.1,0,0,0-7.98,8.148A8.075,8.075,0,0,0,82.348.364ZM82.376-1.4a6.162,6.162,0,0,1-6.048-6.188,6.215,6.215,0,0,1,6.02-6.356,6.167,6.167,0,0,1,6.076,6.188A6.148,6.148,0,0,1,82.376-1.4ZM106.82,0V-8.54c0-4.256-2.52-7.168-6.748-7.168a5.513,5.513,0,0,0-4.7,2.352h-.056v-1.96h-1.96V0h1.96V-8.68c0-3,1.82-5.264,4.788-5.264,2.688,0,4.76,1.96,4.76,5.4V0Zm12.74,0c7.854,0,12.75-4.284,12.75-12.58,0-5.134-2.244-9.01-5.814-11.05a15.288,15.288,0,0,0-7.378-1.53H110.55V0Zm-2.584-5.644V-19.516H119.9c3.706,0,5.984,2.482,5.984,6.97,0,4.59-2.312,6.9-6.018,6.9ZM137.62-17.192V-20.72h-1.96v3.528ZM137.62,0V-15.316h-1.96V0Zm5.6,0V-9.044a4.4,4.4,0,0,1,4.34-4.592h.028v-2.072c-2.464.14-3.64,1.008-4.312,2.6h-.056v-2.212h-1.96V0ZM164.7-6.944c0-.2.028-.392.028-.588a8.191,8.191,0,0,0-8.036-8.176,8.08,8.08,0,0,0-7.952,8.064,8,8,0,0,0,7.98,8.008,8.033,8.033,0,0,0,7.532-5.376h-2.072A5.8,5.8,0,0,1,156.688-1.4a6.086,6.086,0,0,1-5.936-5.544ZM150.752-8.708a6.07,6.07,0,0,1,5.936-5.236,6.122,6.122,0,0,1,6.02,5.236Zm29.96,4.2a5.876,5.876,0,0,1-5.4,3.108,6.245,6.245,0,0,1-6.328-6.3,6.251,6.251,0,0,1,6.328-6.244,6.029,6.029,0,0,1,5.4,3.248h2.156a8.049,8.049,0,0,0-7.616-5.012,8.182,8.182,0,0,0-8.232,7.9A8.025,8.025,0,0,0,175.252.364a8.077,8.077,0,0,0,7.616-4.872ZM189.56,0V-13.552h3.668v-1.764H189.56v-5.4H187.6v5.4h-3.22v1.764h3.22V0Z" transform="translate(-1.19 25.636)"/>
</svg>
